<svg width="37" height="37" viewBox="0 0 37 37" fill="none" xmlns="http://www.w3.org/2000/svg">
<g clip-path="url(#clip0_20725_1087)">
<path d="M22.7801 18.2323L10.9556 16.1323V31.6492C10.9556 32.3579 11.5264 32.9323 12.2305 32.9323H32.6341C33.3382 32.9323 33.9091 32.3579 33.9091 31.6492V25.9323L22.7801 18.2323Z" fill="#1D7043"/>
<path d="M22.7801 4.93262H12.2305C11.5264 4.93262 10.9556 5.50708 10.9556 6.21571V11.9326L22.7801 18.9326L29.0401 21.0326L33.9091 18.9326V11.9326L22.7801 4.93262Z" fill="#25B874"/>
<path d="M10.9556 11.9326H22.7801V18.9326H10.9556V11.9326Z" fill="#13934C"/>
<path opacity="0.1" d="M19.4185 10.5332H10.9556V28.0332H19.4185C20.1216 28.0309 20.6911 27.4578 20.6934 26.7501V11.8163C20.6911 11.1086 20.1216 10.5355 19.4185 10.5332Z" fill="white"/>
<path opacity="0.2" d="M18.7229 11.2329H10.9556V28.7329H18.7229C19.4261 28.7306 19.9956 28.1575 19.9978 27.4498V12.516C19.9956 11.8083 19.4261 11.2352 18.7229 11.2329Z" fill="white"/>
<path opacity="0.2" d="M18.7229 11.2329H10.9556V27.3329H18.7229C19.4261 27.3306 19.9956 26.7575 19.9978 26.0498V12.516C19.9956 11.8083 19.4261 11.2352 18.7229 11.2329Z" fill="white"/>
<path opacity="0.2" d="M18.0273 11.2329H10.9556V27.3329H18.0273C18.7305 27.3306 19.3 26.7575 19.3023 26.0498V12.516C19.3 11.8083 18.7305 11.2352 18.0273 11.2329Z" fill="white"/>
<path d="M5.27496 11.2329H18.0274C18.7315 11.2329 19.3023 11.8074 19.3023 12.516V25.3498C19.3023 26.0584 18.7315 26.6329 18.0274 26.6329H5.27496C4.57082 26.6329 4 26.0584 4 25.3498V12.516C4 11.8074 4.57082 11.2329 5.27496 11.2329Z" fill="url(#paint0_linear_20725_1087)"/>
<path d="M7.94873 23.1031L10.6308 18.9206L8.1734 14.7612H10.1502L11.4912 17.4212C11.615 17.6739 11.6999 17.8615 11.7458 17.9854H11.7632C11.8513 17.7838 11.944 17.5881 12.0414 17.3981L13.475 14.7626H15.2897L12.7696 18.8975L15.3537 23.1031H13.4228L11.8738 20.1834C11.8008 20.0592 11.7389 19.9287 11.6888 19.7935H11.6658C11.6204 19.926 11.5602 20.0528 11.4864 20.1715L9.89144 23.1031H7.94873Z" fill="#0D0D0D"/>
<path d="M32.634 4.93262H22.78V11.9326H33.909V6.21571C33.909 5.50708 33.3382 4.93262 32.634 4.93262Z" fill="#43CE8D"/>
<path d="M22.78 18.9326H33.909V25.9326H22.78V18.9326Z" fill="#13934C"/>
</g>
<defs>
<linearGradient id="paint0_linear_20725_1087" x1="6.65832" y1="10.2303" x2="16.7396" y2="27.5799" gradientUnits="userSpaceOnUse">
<stop stop-color="#18884F"/>
<stop offset="0.5" stop-color="#117E43"/>
<stop offset="1" stop-color="#0B6631"/>
</linearGradient>
<clipPath id="clip0_20725_1087">
<rect width="29.9091" height="28" fill="white" transform="translate(4 4.93262)"/>
</clipPath>
</defs>
</svg>
