<svg width="20" height="20" viewBox="0 0 20 20" fill="none" xmlns="http://www.w3.org/2000/svg">
<path d="M9.99982 2.50001C10.1098 2.50001 10.219 2.50001 10.3273 2.50001C9.25677 3.49477 8.56864 4.83322 8.38256 6.2827C8.19647 7.73218 8.5242 9.20104 9.30876 10.434C10.0933 11.6669 11.2851 12.5859 12.677 13.0312C14.0688 13.4766 15.5728 13.4201 16.9273 12.8717C16.4063 14.1254 15.5546 15.2142 14.4633 16.0219C13.372 16.8296 12.0819 17.3259 10.7306 17.4578C9.37929 17.5898 8.01753 17.3525 6.79056 16.7712C5.56358 16.1899 4.51741 15.2864 3.76364 14.1572C3.00987 13.0279 2.57677 11.7152 2.51055 10.3592C2.44433 9.00306 2.74747 7.65443 3.38762 6.45711C4.02778 5.25979 4.98095 4.2587 6.14545 3.56063C7.30995 2.86255 8.64211 2.49367 9.99982 2.49335V2.50001Z" stroke="#A3A3A3" stroke-width="1.5" stroke-linecap="round" stroke-linejoin="round"/>
</svg>
