<svg width="20" height="20" viewBox="0 0 20 20" fill="none" xmlns="http://www.w3.org/2000/svg">
<path d="M9.99982 2.49995C10.1098 2.49995 10.219 2.49995 10.3273 2.49995C9.25677 3.49471 8.56864 4.83316 8.38256 6.28264C8.19647 7.73212 8.5242 9.20098 9.30876 10.4339C10.0933 11.6668 11.2851 12.5858 12.677 13.0312C14.0688 13.4765 15.5728 13.4201 16.9273 12.8716C16.4063 14.1254 15.5546 15.2141 14.4633 16.0218C13.372 16.8295 12.0819 17.3258 10.7306 17.4578C9.37929 17.5897 8.01753 17.3524 6.79056 16.7711C5.56358 16.1898 4.51741 15.2864 3.76364 14.1571C3.00987 13.0279 2.57677 11.7152 2.51055 10.3591C2.44433 9.003 2.74747 7.65437 3.38762 6.45705C4.02778 5.25973 4.98095 4.25864 6.14545 3.56056C7.30995 2.86249 8.64211 2.49361 9.99982 2.49329V2.49995Z" stroke="#FAFAFA" stroke-width="1.5" stroke-linecap="round" stroke-linejoin="round"/>
</svg>
