<svg width="11" height="4" viewBox="0 0 11 4" fill="none" xmlns="http://www.w3.org/2000/svg">
<path d="M2.65873 0.25441C2.29555 0.224929 1.93155 0.301397 1.61439 0.473804C1.29722 0.646212 1.04167 0.906526 0.881166 1.22068C0.720666 1.53483 0.662701 1.88818 0.714857 2.23448C0.767013 2.58078 0.92686 2.90389 1.17348 3.16154C1.42009 3.41918 1.74199 3.59934 2.09703 3.67844C2.45208 3.75755 2.82373 3.73191 3.16334 3.60488C3.50295 3.47785 3.79471 3.25535 4.00041 2.9665C4.20612 2.67765 4.31619 2.33591 4.31623 1.98601C4.32595 1.7678 4.29078 1.5499 4.21273 1.34475C4.13467 1.1396 4.01527 0.951232 3.86133 0.790414C3.70739 0.629596 3.52195 0.499482 3.3156 0.407511C3.10925 0.315539 2.88604 0.263514 2.65873 0.25441ZM8.58998 0.25441C8.2268 0.224929 7.8628 0.301397 7.54564 0.473804C7.22847 0.646212 6.97292 0.906526 6.81242 1.22068C6.65192 1.53483 6.59395 1.88818 6.64611 2.23448C6.69826 2.58078 6.85811 2.90389 7.10473 3.16154C7.35135 3.41918 7.67324 3.59934 8.02829 3.67844C8.38333 3.75755 8.75498 3.73191 9.09459 3.60488C9.4342 3.47785 9.72596 3.25535 9.93166 2.9665C10.1374 2.67765 10.2474 2.33591 10.2475 1.98601C10.2572 1.7678 10.222 1.5499 10.144 1.34475C10.0659 1.1396 9.94652 0.951232 9.79258 0.790414C9.63864 0.629596 9.4532 0.499482 9.24685 0.407511C9.0405 0.315539 8.81729 0.263514 8.58998 0.25441Z" fill="#999999"/>
</svg>
