<svg width="11" height="4" viewBox="0 0 11 4" fill="none" xmlns="http://www.w3.org/2000/svg">
<path d="M2.65873 0.254348C2.29555 0.224868 1.93155 0.301336 1.61439 0.473743C1.29722 0.64615 1.04167 0.906465 0.881166 1.22062C0.720666 1.53477 0.662701 1.88812 0.714857 2.23442C0.767013 2.58072 0.92686 2.90383 1.17348 3.16147C1.42009 3.41912 1.74199 3.59928 2.09703 3.67838C2.45208 3.75749 2.82373 3.73185 3.16334 3.60482C3.50295 3.47779 3.79471 3.25529 4.00041 2.96644C4.20612 2.67759 4.31619 2.33585 4.31623 1.98595C4.32595 1.76774 4.29078 1.54984 4.21273 1.34469C4.13467 1.13954 4.01527 0.951171 3.86133 0.790353C3.70739 0.629535 3.52195 0.499421 3.3156 0.40745C3.10925 0.315478 2.88604 0.263453 2.65873 0.254348ZM8.58998 0.254348C8.2268 0.224868 7.8628 0.301336 7.54564 0.473743C7.22847 0.64615 6.97292 0.906465 6.81242 1.22062C6.65192 1.53477 6.59395 1.88812 6.64611 2.23442C6.69826 2.58072 6.85811 2.90383 7.10473 3.16147C7.35135 3.41912 7.67324 3.59928 8.02829 3.67838C8.38333 3.75749 8.75498 3.73185 9.09459 3.60482C9.4342 3.47779 9.72596 3.25529 9.93166 2.96644C10.1374 2.67759 10.2474 2.33585 10.2475 1.98595C10.2572 1.76774 10.222 1.54984 10.144 1.34469C10.0659 1.13954 9.94652 0.951171 9.79258 0.790353C9.63864 0.629535 9.4532 0.499421 9.24685 0.40745C9.0405 0.315478 8.81729 0.263453 8.58998 0.254348Z" fill="#999999"/>
</svg>
